<svg xmlns="http://www.w3.org/2000/svg" version="1.1" xmlns:xlink="http://www.w3.org/1999/xlink" xmlns:svgjs="http://svgjs.dev/svgjs" width="1000" height="1000" viewBox="0 0 1000 1000"><rect width="1000" height="1000" fill="#5e1914"></rect><g transform="matrix(0.7,0,0,0.7,149.57575757575756,455.11581619585394)"><svg viewBox="0 0 396 51" data-background-color="#5e1914" preserveAspectRatio="xMidYMid meet" height="128" width="1000" xmlns="http://www.w3.org/2000/svg" xmlns:xlink="http://www.w3.org/1999/xlink"><g id="tight-bounds" transform="matrix(1,0,0,1,0.2400000000000091,0.047917120663470314)"><svg viewBox="0 0 395.52 50.90416575867307" height="50.90416575867307" width="395.52"><g><svg viewBox="0 0 460.2064287628512 59.22943045345658" height="50.90416575867307" width="395.52"><g transform="matrix(1,0,0,1,64.68642876285128,8.18583300767743)"><svg viewBox="0 0 395.5199999999999 42.85776443810172" height="42.85776443810172" width="395.5199999999999"><g id="textblocktransform"><svg viewBox="0 0 395.5199999999999 42.85776443810172" height="42.85776443810172" width="395.5199999999999" id="textblock"><g><svg viewBox="0 0 395.5199999999999 23.115430240239192" height="23.115430240239192" width="395.5199999999999"><g transform="matrix(1,0,0,1,0,0)"><svg width="395.5199999999999" viewBox="3.17 -40.5 702.1800000000001 41.04" height="23.115430240239192" data-palette-color="#ed1703"><path d="M3.17-19.19L3.17-19.19Q3.17-23.51 4.76-27.1 6.35-30.69 9.22-33.26 12.08-35.84 16.1-37.26 20.12-38.67 25-38.67L25-38.67Q29.86-38.67 33.89-37.26 37.92-35.84 40.78-33.26 43.65-30.69 45.24-27.1 46.83-23.51 46.83-19.19L46.83-19.19Q46.83-14.84 45.24-11.22 43.65-7.59 40.78-4.98 37.92-2.37 33.89-0.92 29.86 0.54 25 0.54L25 0.54Q20.12 0.54 16.1-0.92 12.08-2.37 9.22-4.98 6.35-7.59 4.76-11.22 3.17-14.84 3.17-19.19ZM10.91-19.19L10.91-19.19Q10.91-16.24 11.98-13.87 13.04-11.5 14.93-9.83 16.82-8.15 19.4-7.25 21.97-6.35 25-6.35L25-6.35Q28.03-6.35 30.6-7.25 33.18-8.15 35.06-9.83 36.94-11.5 38.01-13.87 39.09-16.24 39.09-19.19L39.09-19.19Q39.09-22.14 38.01-24.49 36.94-26.83 35.06-28.45 33.18-30.08 30.6-30.93 28.03-31.79 25-31.79L25-31.79Q21.97-31.79 19.4-30.93 16.82-30.08 14.93-28.45 13.04-26.83 11.98-24.49 10.91-22.14 10.91-19.19ZM54.71 0L54.71-28.81 61.94-28.81 61.94-26.37Q64.65-28.03 67.22-28.67 69.8-29.32 72.26-29.32L72.26-29.32Q75.71-29.32 78.59-28.22 81.47-27.12 83.52-24.9L83.52-24.9Q85.1-26.12 86.64-26.97 88.18-27.81 89.72-28.33 91.26-28.86 92.84-29.09 94.43-29.32 96.12-29.32L96.12-29.32Q99.66-29.32 102.54-28.36 105.42-27.39 107.46-25.49 109.49-23.58 110.61-20.74 111.72-17.9 111.72-14.16L111.72-14.16 111.72 0 104.51 0 104.51-12.99Q104.51-15.36 103.84-17.22 103.17-19.09 101.96-20.37 100.75-21.66 99.08-22.33 97.41-23 95.41-23L95.41-23Q94.31-23 93.16-22.79 92.01-22.58 90.93-22.14 89.84-21.7 88.89-21.03 87.94-20.36 87.23-19.46L87.23-19.46 87.23 0 80.03 0 80.03-12.99Q80.03-15.36 79.36-17.22 78.68-19.09 77.48-20.37 76.27-21.66 74.57-22.33 72.87-23 70.85-23L70.85-23Q69.6-23 68.34-22.74 67.09-22.49 65.93-22.02 64.77-21.56 63.75-20.9 62.74-20.24 61.94-19.41L61.94-19.41 61.94 0 54.71 0ZM120.8 0L120.8-28.81 128.02-28.81 128.02-26.37Q130.9-28 133.53-28.66 136.15-29.32 138.67-29.32L138.67-29.32Q141.96-29.32 144.77-28.36 147.58-27.39 149.63-25.49 151.68-23.58 152.84-20.74 154-17.9 154-14.16L154-14.16 154 0 146.8 0 146.8-12.99Q146.8-15.36 146.13-17.22 145.45-19.09 144.2-20.37 142.94-21.66 141.14-22.33 139.35-23 137.13-23L137.13-23Q135.96-23 134.72-22.75 133.49-22.51 132.31-22.06 131.12-21.61 130.02-20.94 128.93-20.26 128.02-19.41L128.02-19.41 128.02 0 120.8 0ZM166.67-32.74L166.67-32.74Q165.59-32.74 164.73-33.04 163.86-33.35 163.25-33.87 162.64-34.4 162.31-35.1 161.98-35.79 161.98-36.57L161.98-36.57Q161.98-37.38 162.31-38.07 162.64-38.77 163.25-39.28 163.86-39.79 164.73-40.1 165.59-40.41 166.67-40.41L166.67-40.41Q167.77-40.41 168.63-40.1 169.5-39.79 170.11-39.28 170.72-38.77 171.05-38.07 171.38-37.38 171.38-36.57L171.38-36.57Q171.38-35.79 171.05-35.1 170.72-34.4 170.11-33.87 169.5-33.35 168.63-33.04 167.77-32.74 166.67-32.74ZM163.05 0L163.05-28.81 170.28-28.81 170.28 0 163.05 0ZM180.43 0L180.43-38.16 200.55-38.16Q204.95-38.16 208.17-37.21 211.39-36.25 213.52-34.46 215.64-32.67 216.68-30.08 217.71-27.49 217.71-24.24L217.71-24.24Q217.71-21.19 216.69-18.6 215.66-16.02 213.55-14.12 211.44-12.23 208.22-11.17 204.99-10.11 200.6-10.11L200.6-10.11 188.17-10.13 188.17 0 180.43 0ZM188.17-16.82L200.75-16.82Q202.94-16.82 204.59-17.35 206.24-17.87 207.35-18.84 208.46-19.8 209.01-21.18 209.56-22.56 209.56-24.24L209.56-24.24Q209.56-27.64 207.35-29.53 205.14-31.42 200.75-31.42L200.75-31.42 188.17-31.42 188.17-16.82ZM223.52-14.4L223.52-14.4Q223.52-17.5 224.78-20.21 226.04-22.92 228.37-24.95 230.7-26.98 234.01-28.15 237.32-29.32 241.44-29.32L241.44-29.32Q245.57-29.32 248.88-28.15 252.18-26.98 254.52-24.95 256.85-22.92 258.11-20.21 259.36-17.5 259.36-14.4L259.36-14.4Q259.36-11.3 258.11-8.59 256.85-5.88 254.52-3.86 252.18-1.83 248.88-0.66 245.57 0.51 241.44 0.51L241.44 0.51Q237.32 0.51 234.01-0.66 230.7-1.83 228.37-3.86 226.04-5.88 224.78-8.59 223.52-11.3 223.52-14.4ZM231.12-14.4L231.12-14.4Q231.12-12.67 231.81-11.12 232.51-9.57 233.84-8.39 235.17-7.2 237.08-6.51 239-5.81 241.44-5.81L241.44-5.81Q243.88-5.81 245.8-6.51 247.72-7.2 249.05-8.39 250.38-9.57 251.07-11.12 251.77-12.67 251.77-14.4L251.77-14.4Q251.77-16.14 251.07-17.7 250.38-19.26 249.05-20.45 247.72-21.63 245.8-22.33 243.88-23.02 241.44-23.02L241.44-23.02Q239-23.02 237.08-22.33 235.17-21.63 233.84-20.45 232.51-19.26 231.81-17.7 231.12-16.14 231.12-14.4ZM276.33 0L262.68-28.83 271.05-28.83 278.55-11.5 280.75-6.64 283.43-12.94 276.3-28.83 283.33-28.83 286.83-20.29 290.32-28.83 297.35-28.83 290.19-12.94 292.9-6.64 295.1-11.5 302.6-28.83 310.97-28.83 297.32 0 289.46 0 286.83-5.57 284.19 0 276.33 0ZM314.66-14.5L314.66-14.5Q314.66-17.43 315.85-20.1 317.05-22.78 319.29-24.83 321.54-26.88 324.8-28.1 328.06-29.32 332.21-29.32L332.21-29.32Q336.34-29.32 339.64-28.09 342.95-26.86 345.26-24.71 347.57-22.56 348.8-19.65 350.03-16.75 350.03-13.43L350.03-13.43Q350.03-13.01 350.02-12.54 350.01-12.06 349.96-11.67L349.96-11.67 322.71-11.67Q323.18-10.38 324.21-9.3 325.25-8.23 326.81-7.45 328.38-6.67 330.43-6.24 332.48-5.81 334.97-5.81L334.97-5.81Q337.46-5.81 339.92-6.34 342.39-6.86 344.64-7.67L344.64-7.67 347.08-2.15Q345.66-1.49 344.21-0.99 342.76-0.49 341.18-0.16 339.61 0.17 337.89 0.34 336.16 0.51 334.26 0.51L334.26 0.51Q329.4 0.51 325.74-0.66 322.08-1.83 319.61-3.86 317.15-5.88 315.9-8.62 314.66-11.35 314.66-14.5ZM322.71-17.31L342.37-17.31Q341.97-18.51 341.16-19.54 340.34-20.58 339.12-21.35 337.9-22.12 336.29-22.56 334.67-23 332.75-23L332.75-23Q330.7-23 329.01-22.53 327.33-22.07 326.06-21.29 324.79-20.51 323.94-19.48 323.1-18.46 322.71-17.31L322.71-17.31ZM357.79 0L357.79-28.81 365.02-28.81 365.02-24.66Q367.41-26.44 370.07-27.73 372.73-29.03 375.37-29.71L375.37-29.71 377.49-23.1Q373.32-22.68 370.16-21.23 367-19.78 365.02-17.14L365.02-17.14 365.02 0 357.79 0ZM398.02-5.08L402.15-11.35Q404.22-10.18 406.36-9.24 408.5-8.3 410.79-7.65 413.09-7.01 415.61-6.67 418.14-6.32 421-6.32L421-6.32Q424.44-6.32 426.85-6.77 429.27-7.23 430.8-8.02 432.32-8.81 433.02-9.91 433.72-11.01 433.72-12.3L433.72-12.3Q433.72-14.38 431.98-15.59 430.25-16.8 426.64-16.8L426.64-16.8Q425.05-16.8 423.29-16.59 421.53-16.38 419.74-16.14 417.94-15.89 416.2-15.69 414.45-15.48 412.91-15.48L412.91-15.48Q410.35-15.48 408-16.14 405.64-16.8 403.82-18.12 402-19.43 400.93-21.41 399.85-23.39 399.85-26.03L399.85-26.03Q399.85-27.59 400.28-29.13 400.71-30.66 401.65-32.07 402.59-33.47 404.08-34.68 405.57-35.89 407.68-36.77 409.79-37.65 412.56-38.15 415.33-38.65 418.87-38.65L418.87-38.65Q421.43-38.65 424.02-38.37 426.61-38.09 429.06-37.57 431.52-37.06 433.79-36.34 436.06-35.62 438.01-34.74L438.01-34.74 434.62-28.49Q433.01-29.2 431.15-29.8 429.3-30.4 427.27-30.83 425.24-31.27 423.08-31.53 420.92-31.79 418.68-31.79L418.68-31.79Q415.48-31.79 413.41-31.32 411.35-30.86 410.13-30.14 408.91-29.42 408.43-28.53 407.96-27.64 407.96-26.76L407.96-26.76Q407.96-25.05 409.5-23.96 411.03-22.88 414.18-22.88L414.18-22.88Q415.45-22.88 417.1-23.06 418.75-23.24 420.57-23.46 422.39-23.68 424.28-23.86 426.17-24.05 427.95-24.05L427.95-24.05Q431.32-24.05 433.92-23.29 436.52-22.53 438.28-21.13 440.04-19.73 440.94-17.74 441.85-15.75 441.85-13.28L441.85-13.28Q441.85-9.99 440.32-7.41 438.79-4.83 435.97-3.06 433.15-1.29 429.17-0.38 425.19 0.54 420.31 0.54L420.31 0.54Q417.09 0.54 414.01 0.13 410.94-0.27 408.12-1.01 405.3-1.76 402.75-2.8 400.19-3.83 398.02-5.08L398.02-5.08ZM447.73-14.4L447.73-14.4Q447.73-17.5 448.98-20.21 450.24-22.92 452.57-24.95 454.9-26.98 458.21-28.15 461.52-29.32 465.65-29.32L465.65-29.32Q469.77-29.32 473.08-28.15 476.39-26.98 478.72-24.95 481.05-22.92 482.31-20.21 483.57-17.5 483.57-14.4L483.57-14.4Q483.57-11.3 482.31-8.59 481.05-5.88 478.72-3.86 476.39-1.83 473.08-0.66 469.77 0.51 465.65 0.51L465.65 0.51Q461.52 0.51 458.21-0.66 454.9-1.83 452.57-3.86 450.24-5.88 448.98-8.59 447.73-11.3 447.73-14.4ZM455.32-14.4L455.32-14.4Q455.32-12.67 456.01-11.12 456.71-9.57 458.04-8.39 459.37-7.2 461.29-6.51 463.2-5.81 465.65-5.81L465.65-5.81Q468.09-5.81 470-6.51 471.92-7.2 473.25-8.39 474.58-9.57 475.28-11.12 475.97-12.67 475.97-14.4L475.97-14.4Q475.97-16.14 475.28-17.7 474.58-19.26 473.25-20.45 471.92-21.63 470-22.33 468.09-23.02 465.65-23.02L465.65-23.02Q463.2-23.02 461.29-22.33 459.37-21.63 458.04-20.45 456.71-19.26 456.01-17.7 455.32-16.14 455.32-14.4ZM491.06 0L491.06-40.5 498.29-40.5 498.29 0 491.06 0ZM507.54-13.75L507.54-28.83 514.74-28.83 514.74-14.77Q514.74-12.77 515.18-11.12 515.62-9.47 516.68-8.3 517.74-7.13 519.51-6.48 521.28-5.83 523.92-5.83L523.92-5.83Q525.16-5.83 526.44-6.1 527.73-6.37 528.9-6.85 530.07-7.32 531.08-7.98 532.1-8.64 532.83-9.42L532.83-9.42 532.83-28.83 540.06-28.83 540.06 0 532.83 0 532.83-2.47Q530.17-0.88 527.48-0.2 524.8 0.49 522.38 0.49L522.38 0.49Q518.42 0.49 515.6-0.46 512.78-1.42 510.99-3.23 509.2-5.05 508.37-7.7 507.54-10.35 507.54-13.75L507.54-13.75ZM553.58 0L553.58-23.39 546.62-23.39 546.62-28.81 553.58-28.81 553.58-37.77 560.8-37.77 560.8-28.81 567.76-28.81 567.76-23.39 560.8-23.39 560.8 0 553.58 0ZM577.99-32.74L577.99-32.74Q576.92-32.74 576.05-33.04 575.18-33.35 574.57-33.87 573.96-34.4 573.63-35.1 573.3-35.79 573.3-36.57L573.3-36.57Q573.3-37.38 573.63-38.07 573.96-38.77 574.57-39.28 575.18-39.79 576.05-40.1 576.92-40.41 577.99-40.41L577.99-40.41Q579.09-40.41 579.96-40.1 580.82-39.79 581.43-39.28 582.04-38.77 582.37-38.07 582.7-37.38 582.7-36.57L582.7-36.57Q582.7-35.79 582.37-35.1 582.04-34.4 581.43-33.87 580.82-33.35 579.96-33.04 579.09-32.74 577.99-32.74ZM574.38 0L574.38-28.81 581.6-28.81 581.6 0 574.38 0ZM589.12-14.4L589.12-14.4Q589.12-17.5 590.38-20.21 591.63-22.92 593.97-24.95 596.3-26.98 599.61-28.15 602.91-29.32 607.04-29.32L607.04-29.32Q611.17-29.32 614.47-28.15 617.78-26.98 620.11-24.95 622.45-22.92 623.7-20.21 624.96-17.5 624.96-14.4L624.96-14.4Q624.96-11.3 623.7-8.59 622.45-5.88 620.11-3.86 617.78-1.83 614.47-0.66 611.17 0.51 607.04 0.51L607.04 0.51Q602.91 0.51 599.61-0.66 596.3-1.83 593.97-3.86 591.63-5.88 590.38-8.59 589.12-11.3 589.12-14.4ZM596.71-14.4L596.71-14.4Q596.71-12.67 597.41-11.12 598.1-9.57 599.44-8.39 600.77-7.2 602.68-6.51 604.6-5.81 607.04-5.81L607.04-5.81Q609.48-5.81 611.4-6.51 613.31-7.2 614.65-8.39 615.98-9.57 616.67-11.12 617.37-12.67 617.37-14.4L617.37-14.4Q617.37-16.14 616.67-17.7 615.98-19.26 614.65-20.45 613.31-21.63 611.4-22.33 609.48-23.02 607.04-23.02L607.04-23.02Q604.6-23.02 602.68-22.33 600.77-21.63 599.44-20.45 598.1-19.26 597.41-17.7 596.71-16.14 596.71-14.4ZM632.26 0L632.26-28.81 639.48-28.81 639.48-26.37Q642.36-28 644.99-28.66 647.61-29.32 650.13-29.32L650.13-29.32Q653.42-29.32 656.23-28.36 659.04-27.39 661.09-25.49 663.14-23.58 664.3-20.74 665.46-17.9 665.46-14.16L665.46-14.16 665.46 0 658.26 0 658.26-12.99Q658.26-15.36 657.59-17.22 656.92-19.09 655.66-20.37 654.4-21.66 652.61-22.33 650.81-23 648.59-23L648.59-23Q647.42-23 646.19-22.75 644.95-22.51 643.77-22.06 642.58-21.61 641.49-20.94 640.39-20.26 639.48-19.41L639.48-19.41 639.48 0 632.26 0ZM672.34-3.37L675.47-8.84Q678.4-7.08 681.91-6.25 685.43-5.42 689.12-5.42L689.12-5.42Q691.61-5.42 693.27-5.76 694.93-6.1 695.93-6.64 696.93-7.18 697.34-7.86 697.76-8.54 697.76-9.25L697.76-9.25Q697.76-10.28 696.87-11.01 695.98-11.74 693.92-11.74L693.92-11.74Q692.97-11.74 691.87-11.62 690.78-11.5 689.57-11.36 688.36-11.23 687.05-11.11 685.75-10.99 684.4-10.99L684.4-10.99Q681.47-10.99 679.41-11.62 677.35-12.26 676.05-13.35 674.76-14.45 674.17-15.95 673.59-17.46 673.59-19.19L673.59-19.19Q673.59-21.39 674.61-23.24 675.64-25.1 677.54-26.45 679.45-27.81 682.14-28.56 684.84-29.32 688.16-29.32L688.16-29.32Q689.9-29.32 691.79-29.11 693.68-28.91 695.51-28.56 697.34-28.22 699.03-27.77 700.71-27.32 702.01-26.81L702.01-26.81 699.74-21.19Q696.98-22.22 694.23-22.81 691.48-23.41 688.58-23.41L688.58-23.41Q686.55-23.41 685.15-23.11 683.74-22.8 682.87-22.3 681.99-21.8 681.58-21.15 681.18-20.51 681.18-19.8L681.18-19.8Q681.18-19.29 681.39-18.87 681.6-18.46 682.07-18.15 682.55-17.85 683.32-17.69 684.09-17.53 685.21-17.53L685.21-17.53Q686.23-17.53 687.38-17.65 688.53-17.77 689.77-17.91 691.02-18.04 692.35-18.16 693.68-18.29 695.07-18.29L695.07-18.29Q697.66-18.29 699.6-17.68 701.54-17.07 702.81-15.97 704.08-14.87 704.72-13.38 705.35-11.89 705.35-10.13L705.35-10.13Q705.35-7.86 704.3-5.91 703.25-3.96 701.18-2.53 699.1-1.1 696.01-0.29 692.92 0.51 688.87 0.51L688.87 0.51Q686.38 0.51 684.06 0.21 681.74-0.1 679.64-0.62 677.54-1.15 675.7-1.86 673.86-2.56 672.34-3.37L672.34-3.37Z" opacity="1" transform="matrix(1,0,0,1,0,0)" fill="#ed1703" class="wordmark-text-0" data-fill-palette-color="primary" id="text-0"></path></svg></g></svg></g><g transform="matrix(1,0,0,1,0,28.572428549633898)"><svg viewBox="0 0 142.94944858796384 14.28533588846782" height="14.28533588846782" width="142.94944858796384"><g transform="matrix(1,0,0,1,0,0)"><svg width="142.94944858796384" viewBox="4.35 -35.25 446.25 44.6" height="14.28533588846782" data-palette-color="#ff4136"><path d="M26.1 0L4.35 0 4.35-35.25 8.45-35.25 8.45-3.5 26.1-3.5 26.1 0ZM34.8 0L30.75 0 30.75-24.35 34.8-24.35 34.8 0ZM30.35-30.35L30.35-34.9 35.25-34.9 35.25-30.35 30.35-30.35ZM60.09-24.35L64.14-24.35 64.14-1.65Q64.14 3.8 61.34 6.58 58.55 9.35 53.05 9.35L53.05 9.35Q46.64 9.35 42.3 6.05L42.3 6.05 43.64 3.05Q46.09 4.65 48.24 5.35 50.39 6.05 53.05 6.05L53.05 6.05Q56.55 6.05 58.34 4.17 60.14 2.3 60.14-1.3L60.14-1.3 60.14-5.6Q59.09-3.25 56.92-2 54.75-0.75 51.8-0.75L51.8-0.75Q48.59-0.75 46.12-2.25 43.64-3.75 42.27-6.5 40.89-9.25 40.89-12.85L40.89-12.85Q40.89-16.45 42.27-19.2 43.64-21.95 46.12-23.45 48.59-24.95 51.8-24.95L51.8-24.95Q54.7-24.95 56.84-23.7 59-22.45 60.09-20.15L60.09-20.15 60.09-24.35ZM52.59-4.1Q56.09-4.1 58.09-6.43 60.09-8.75 60.09-12.85L60.09-12.85Q60.09-16.9 58.12-19.23 56.14-21.55 52.59-21.55L52.59-21.55Q49.05-21.55 47.02-19.23 44.99-16.9 44.99-12.85L44.99-12.85Q44.99-8.75 47.02-6.43 49.05-4.1 52.59-4.1L52.59-4.1ZM83.89-24.95Q92.64-24.95 92.64-15.3L92.64-15.3 92.64 0 88.59 0 88.59-15.05Q88.59-18.45 87.27-20 85.94-21.55 83.04-21.55L83.04-21.55Q79.69-21.55 77.69-19.5 75.69-17.45 75.69-13.95L75.69-13.95 75.69 0 71.64 0 71.64-35.25 75.69-35.25 75.69-20.45Q76.89-22.65 79.02-23.8 81.14-24.95 83.89-24.95L83.89-24.95ZM110.74-2.9Q111.84-2.9 112.94-3.05L112.94-3.05 112.74 0.15Q111.59 0.35 110.24 0.35L110.24 0.35Q105.84 0.35 103.62-1.95 101.39-4.25 101.39-8.35L101.39-8.35 101.39-21.15 96.64-21.15 96.64-24.35 101.39-24.35 101.39-31.75 105.44-31.75 105.44-24.35 112.34-24.35 112.34-21.15 105.44-21.15 105.44-8.65Q105.44-2.9 110.74-2.9L110.74-2.9ZM121.09 0L117.04 0 117.04-24.35 121.09-24.35 121.09 0ZM116.64-30.35L116.64-34.9 121.54-34.9 121.54-30.35 116.64-30.35ZM140.89-24.95Q149.64-24.95 149.64-15.3L149.64-15.3 149.64 0 145.59 0 145.59-15.05Q145.59-18.45 144.26-20 142.94-21.55 140.04-21.55L140.04-21.55Q136.69-21.55 134.69-19.5 132.69-17.45 132.69-13.95L132.69-13.95 132.69 0 128.64 0 128.64-24.35 132.64-24.35 132.64-20.35Q133.84-22.6 135.99-23.78 138.14-24.95 140.89-24.95L140.89-24.95ZM174.78-24.35L178.83-24.35 178.83-1.65Q178.83 3.8 176.03 6.58 173.23 9.35 167.73 9.35L167.73 9.35Q161.33 9.35 156.98 6.05L156.98 6.05 158.33 3.05Q160.78 4.65 162.93 5.35 165.08 6.05 167.73 6.05L167.73 6.05Q171.23 6.05 173.03 4.17 174.83 2.3 174.83-1.3L174.83-1.3 174.83-5.6Q173.78-3.25 171.61-2 169.43-0.75 166.48-0.75L166.48-0.75Q163.28-0.75 160.81-2.25 158.33-3.75 156.96-6.5 155.58-9.25 155.58-12.85L155.58-12.85Q155.58-16.45 156.96-19.2 158.33-21.95 160.81-23.45 163.28-24.95 166.48-24.95L166.48-24.95Q169.38-24.95 171.53-23.7 173.68-22.45 174.78-20.15L174.78-20.15 174.78-24.35ZM167.28-4.1Q170.78-4.1 172.78-6.43 174.78-8.75 174.78-12.85L174.78-12.85Q174.78-16.9 172.81-19.23 170.83-21.55 167.28-21.55L167.28-21.55Q163.73-21.55 161.71-19.23 159.68-16.9 159.68-12.85L159.68-12.85Q159.68-8.75 161.71-6.43 163.73-4.1 167.28-4.1L167.28-4.1ZM203.93 0L199.83 0 199.83-35.25 203.93-35.25 203.93 0ZM224.28-24.95Q233.03-24.95 233.03-15.3L233.03-15.3 233.03 0 228.98 0 228.98-15.05Q228.98-18.45 227.65-20 226.33-21.55 223.43-21.55L223.43-21.55Q220.08-21.55 218.08-19.5 216.08-17.45 216.08-13.95L216.08-13.95 216.08 0 212.03 0 212.03-24.35 216.03-24.35 216.03-20.35Q217.23-22.6 219.38-23.78 221.53-24.95 224.28-24.95L224.28-24.95ZM252.67-24.95Q261.42-24.95 261.42-15.3L261.42-15.3 261.42 0 257.37 0 257.37-15.05Q257.37-18.45 256.05-20 254.72-21.55 251.82-21.55L251.82-21.55Q248.47-21.55 246.47-19.5 244.47-17.45 244.47-13.95L244.47-13.95 244.47 0 240.42 0 240.42-24.35 244.42-24.35 244.42-20.35Q245.62-22.6 247.77-23.78 249.92-24.95 252.67-24.95L252.67-24.95ZM278.92 0.35Q275.47 0.35 272.85-1.2 270.22-2.75 268.8-5.63 267.37-8.5 267.37-12.3L267.37-12.3Q267.37-16.1 268.8-18.98 270.22-21.85 272.85-23.4 275.47-24.95 278.92-24.95L278.92-24.95Q282.37-24.95 285.02-23.4 287.67-21.85 289.1-18.98 290.52-16.1 290.52-12.3L290.52-12.3Q290.52-8.5 289.1-5.63 287.67-2.75 285.02-1.2 282.37 0.35 278.92 0.35L278.92 0.35ZM278.92-3Q282.52-3 284.45-5.38 286.37-7.75 286.37-12.3L286.37-12.3Q286.37-16.75 284.42-19.18 282.47-21.6 278.92-21.6L278.92-21.6Q275.37-21.6 273.42-19.18 271.47-16.75 271.47-12.3L271.47-12.3Q271.47-7.8 273.4-5.4 275.32-3 278.92-3L278.92-3ZM305.47-4.4L313.72-24.3 317.77-24.3 307.27 0 303.47 0 293.02-24.3 297.32-24.3 305.47-4.4ZM331.42-24.95Q336.07-24.95 338.34-22.58 340.62-20.2 340.62-15.35L340.62-15.35 340.62 0 336.67 0 336.67-4.15Q335.72-2 333.77-0.83 331.82 0.35 329.27 0.35L329.27 0.35Q326.92 0.35 324.94-0.6 322.97-1.55 321.82-3.25 320.67-4.95 320.67-7L320.67-7Q320.67-9.75 322.07-11.28 323.47-12.8 326.67-13.48 329.87-14.15 335.57-14.15L335.57-14.15 336.67-14.15 336.67-15.8Q336.67-18.85 335.42-20.23 334.17-21.6 331.37-21.6L331.37-21.6Q327.17-21.6 323.02-19L323.02-19 321.67-21.95Q323.57-23.3 326.24-24.13 328.92-24.95 331.42-24.95L331.42-24.95ZM329.82-2.85Q332.82-2.85 334.74-4.88 336.67-6.9 336.67-10.1L336.67-10.1 336.67-11.55 335.77-11.55Q331.37-11.55 329.07-11.18 326.77-10.8 325.79-9.93 324.82-9.05 324.82-7.35L324.82-7.35Q324.82-5.4 326.24-4.13 327.67-2.85 329.82-2.85L329.82-2.85ZM358.71-2.9Q359.81-2.9 360.91-3.05L360.91-3.05 360.71 0.15Q359.56 0.35 358.21 0.35L358.21 0.35Q353.81 0.35 351.59-1.95 349.36-4.25 349.36-8.35L349.36-8.35 349.36-21.15 344.61-21.15 344.61-24.35 349.36-24.35 349.36-31.75 353.41-31.75 353.41-24.35 360.31-24.35 360.31-21.15 353.41-21.15 353.41-8.65Q353.41-2.9 358.71-2.9L358.71-2.9ZM369.06 0L365.01 0 365.01-24.35 369.06-24.35 369.06 0ZM364.61-30.35L364.61-34.9 369.51-34.9 369.51-30.35 364.61-30.35ZM386.71 0.35Q383.26 0.35 380.63-1.2 378.01-2.75 376.58-5.63 375.16-8.5 375.16-12.3L375.16-12.3Q375.16-16.1 376.58-18.98 378.01-21.85 380.63-23.4 383.26-24.95 386.71-24.95L386.71-24.95Q390.16-24.95 392.81-23.4 395.46-21.85 396.88-18.98 398.31-16.1 398.31-12.3L398.31-12.3Q398.31-8.5 396.88-5.63 395.46-2.75 392.81-1.2 390.16 0.35 386.71 0.35L386.71 0.35ZM386.71-3Q390.31-3 392.23-5.38 394.16-7.75 394.16-12.3L394.16-12.3Q394.16-16.75 392.21-19.18 390.26-21.6 386.71-21.6L386.71-21.6Q383.16-21.6 381.21-19.18 379.26-16.75 379.26-12.3L379.26-12.3Q379.26-7.8 381.18-5.4 383.11-3 386.71-3L386.71-3ZM416.61-24.95Q425.36-24.95 425.36-15.3L425.36-15.3 425.36 0 421.31 0 421.31-15.05Q421.31-18.45 419.98-20 418.66-21.55 415.76-21.55L415.76-21.55Q412.41-21.55 410.41-19.5 408.41-17.45 408.41-13.95L408.41-13.95 408.41 0 404.36 0 404.36-24.35 408.36-24.35 408.36-20.35Q409.56-22.6 411.71-23.78 413.86-24.95 416.61-24.95L416.61-24.95ZM441 0.35Q434.85 0.35 431.25-2.8L431.25-2.8 432.6-5.8Q434.55-4.25 436.58-3.58 438.6-2.9 441.15-2.9L441.15-2.9Q443.85-2.9 445.28-3.83 446.7-4.75 446.7-6.5L446.7-6.5Q446.7-7.95 445.75-8.8 444.8-9.65 442.6-10.15L442.6-10.15 438.5-11.1Q435.4-11.8 433.75-13.5 432.1-15.2 432.1-17.7L432.1-17.7Q432.1-20.95 434.65-22.95 437.2-24.95 441.45-24.95L441.45-24.95Q444-24.95 446.3-24.13 448.6-23.3 450.15-21.75L450.15-21.75 448.8-18.8Q445.45-21.65 441.45-21.65L441.45-21.65Q438.9-21.65 437.48-20.68 436.05-19.7 436.05-17.95L436.05-17.95Q436.05-16.5 436.93-15.63 437.8-14.75 439.75-14.3L439.75-14.3 443.9-13.3Q447.3-12.5 448.95-10.88 450.6-9.25 450.6-6.65L450.6-6.65Q450.6-3.45 448.03-1.55 445.45 0.35 441 0.35L441 0.35Z" opacity="1" transform="matrix(1,0,0,1,0,0)" fill="#ff4136" class="slogan-text-1" data-fill-palette-color="secondary" id="text-1"></path></svg></g></svg></g></svg></g></svg></g><g><svg viewBox="0 0 59.22943045345657 59.22943045345658" height="59.22943045345658" width="59.22943045345657"><g><svg></svg></g><g id="icon-0"><svg viewBox="0 0 59.22943045345657 59.22943045345658" height="59.22943045345658" width="59.22943045345657"><g><path transform="scale(0.59229,0.59229)" d="M30 100c-16.569 0-30-13.431-30-30v-40c0-16.569 13.431-30 30-30h40c16.569 0 30 13.431 30 30v40c0 16.569-13.431 30-30 30z" fill="#ff908b" fill-rule="nonzero" stroke="none" stroke-width="1" stroke-linecap="butt" stroke-linejoin="miter" stroke-miterlimit="10" stroke-dasharray="" stroke-dashoffset="0" font-family="none" font-weight="none" font-size="none" text-anchor="none" style="mix-blend-mode: normal" data-fill-palette-color="accent"></path></g><g transform="matrix(1,0,0,1,12.023574382051684,11.845886090691316)"><svg viewBox="0 0 35.1822816893532 35.53765827207395" height="35.53765827207395" width="35.1822816893532"><g><svg xmlns="http://www.w3.org/2000/svg" xmlns:xlink="http://www.w3.org/1999/xlink" version="1.1" x="0" y="0" viewBox="0 0 99 100" enable-background="new 0 0 99.165 100" xml:space="preserve" width="35.1822816893532" height="35.53765827207395" class="icon-z$-0" data-fill-palette-color="quaternary" id="z$-0"><polygon points="82.737,44.563 82.027,41.417 98.441,37.658 99.165,40.818 " fill="#5e1914" data-fill-palette-color="quaternary"></polygon><rect x="80.839" y="15.836" transform="matrix(0.6231 0.7821 -0.7821 0.6231 50.0458 -55.3536)" width="3.239" height="16.831" fill="#5e1914" data-fill-palette-color="quaternary"></rect><polygon points="72.951,5.708 70.027,4.302 62.732,19.449 65.641,20.855 " fill="#5e1914" data-fill-palette-color="quaternary"></polygon><rect x="47.96" width="3.23" height="16.832" fill="#5e1914" data-fill-palette-color="quaternary"></rect><polygon points="36.419,19.449 29.125,4.302 26.201,5.708 33.51,20.855 " fill="#5e1914" data-fill-palette-color="quaternary"></polygon><rect x="8.277" y="22.632" transform="matrix(0.7817 0.6237 -0.6237 0.7817 18.7697 -5.1161)" width="16.831" height="3.239" fill="#5e1914" data-fill-palette-color="quaternary"></rect><polygon points="17.124,41.417 0.71,37.658 0,40.818 16.414,44.563 " fill="#5e1914" data-fill-palette-color="quaternary"></polygon><path d="M39.315 91.814l21.717-3.927c0.028-0.264 0.042-0.543 0.042-0.821v-2.102l-22.776 4.106C38.494 90.046 38.842 90.965 39.315 91.814z" fill="#5e1914" data-fill-palette-color="quaternary"></path><polygon points="38.09,86.983 61.075,82.834 61.075,79.925 38.09,84.06 " fill="#5e1914" data-fill-palette-color="quaternary"></polygon><path d="M60.602 90.102l-19.937 3.592c0.654 0.724 1.406 1.337 2.255 1.838V100h13.337v-4.469C58.291 94.306 59.85 92.385 60.602 90.102z" fill="#5e1914" data-fill-palette-color="quaternary"></path><path d="M75.526 50.48c0-14.326-11.611-25.937-25.95-25.937-14.312 0-25.937 11.611-25.937 25.937 0 10.204 5.889 19.017 14.451 23.263v8.2l22.984-4.148v-4.052C69.637 69.497 75.526 60.685 75.526 50.48z" fill="#5e1914" data-fill-palette-color="quaternary"></path></svg></g></svg></g></svg></g></svg></g></svg></g><defs></defs></svg><rect width="395.52" height="50.90416575867307" fill="none" stroke="none" visibility="hidden"></rect></g></svg></g></svg>